<?xml version="1.0" standalone="no"?>
<!DOCTYPE svg PUBLIC "-//W3C//DTD SVG 20010904//EN"
 "http://www.w3.org/TR/2001/REC-SVG-20010904/DTD/svg10.dtd">
<svg version="1.0" xmlns="http://www.w3.org/2000/svg"
 width="512.000000pt" height="512.000000pt" viewBox="0 0 512.000000 512.000000"
 preserveAspectRatio="xMidYMid meet">

<g transform="translate(0.000000,512.000000) scale(0.100000,-0.100000)"
fill="#000000" stroke="none">
<path d="M1243 4710 l-42 -90 71 -36 c77 -39 77 -39 100 24 12 32 12 32 80 32
l68 0 0 80 0 80 -118 0 -118 0 -41 -90z"/>
<path d="M1680 4720 l0 -80 160 0 160 0 0 80 0 80 -160 0 -160 0 0 -80z"/>
<path d="M2160 4720 l0 -80 160 0 160 0 0 80 0 80 -160 0 -160 0 0 -80z"/>
<path d="M2640 4720 l0 -80 160 0 160 0 0 80 0 80 -160 0 -160 0 0 -80z"/>
<path d="M3120 4720 l0 -80 160 0 160 0 0 80 0 80 -160 0 -160 0 0 -80z"/>
<path d="M3600 4720 l0 -80 68 0 c68 0 68 0 80 -32 23 -63 23 -63 100 -24 l71
36 -42 90 -41 90 -118 0 -118 0 0 -80z"/>
<path d="M3947 4442 c-37 -20 -67 -40 -67 -45 0 -6 114 -212 146 -264 l14 -22
65 37 c36 20 65 42 65 47 -1 6 -35 72 -78 147 l-78 136 -67 -36z"/>
<path d="M1077 4428 c-14 -24 -43 -74 -64 -113 -22 -38 -48 -84 -57 -102 l-16
-31 67 -37 c41 -22 69 -33 75 -27 12 12 159 274 156 278 -8 6 -127 74 -132 74
-3 0 -16 -19 -29 -42z"/>
<path d="M4183 4003 c-34 -20 -61 -39 -59 -42 42 -79 159 -281 163 -281 11 0
133 72 132 78 -1 16 -155 276 -164 278 -5 2 -38 -13 -72 -33z"/>
<path d="M776 3896 c-42 -74 -76 -138 -76 -142 0 -9 131 -88 135 -82 30 49
155 278 155 285 0 9 -111 73 -128 73 -5 0 -44 -60 -86 -134z"/>
<path d="M4437 3572 c-37 -20 -67 -40 -67 -44 0 -6 30 -61 122 -220 37 -65 40
-67 61 -54 12 7 43 25 69 40 l47 26 -81 143 c-44 78 -81 143 -82 144 -1 1 -32
-15 -69 -35z"/>
<path d="M572 3533 c-59 -102 -122 -214 -122 -218 0 -10 134 -75 141 -68 8 8
113 193 142 249 l16 30 -64 37 c-35 20 -66 37 -69 37 -3 0 -23 -30 -44 -67z"/>
<path d="M288 3031 c-43 -76 -78 -142 -78 -147 0 -5 29 -26 65 -46 l65 -37 14
22 c40 65 146 257 146 265 0 4 -30 24 -67 44 l-68 36 -77 -137z"/>
<path d="M4673 3132 l-63 -35 24 -41 c12 -23 49 -87 81 -143 31 -57 59 -103
62 -103 9 0 133 72 133 76 0 15 -157 283 -165 283 -5 -1 -38 -17 -72 -37z"/>
<path d="M66 2645 l-45 -85 45 -85 c25 -47 48 -85 50 -85 8 0 98 48 117 62 18
13 18 16 -4 61 l-23 47 23 47 c22 45 22 48 4 61 -19 14 -109 62 -117 62 -2 0
-25 -38 -50 -85z"/>
<path d="M4933 2694 c-35 -19 -63 -37 -63 -39 0 -3 10 -25 22 -50 l22 -45 -22
-45 c-12 -25 -22 -47 -22 -50 0 -5 124 -75 133 -75 3 0 26 38 51 85 l45 85
-45 85 c-25 47 -49 85 -52 85 -4 0 -35 -16 -69 -36z"/>
<path d="M4766 2297 c-39 -64 -146 -257 -146 -264 0 -4 30 -25 67 -45 l67 -36
78 136 c43 75 78 142 78 148 0 5 -29 27 -65 47 l-65 36 -14 -22z"/>
<path d="M277 2276 c-31 -18 -60 -35 -63 -39 -4 -4 134 -264 153 -287 2 -2 27
9 56 24 95 53 95 35 7 191 -44 77 -83 141 -87 142 -4 1 -34 -13 -66 -31z"/>
<path d="M518 1838 l-66 -39 81 -144 82 -144 67 37 c38 20 68 39 68 43 0 8
-149 272 -158 280 -4 3 -37 -11 -74 -33z"/>
<path d="M4507 1838 c-14 -24 -50 -87 -81 -142 -31 -54 -55 -100 -54 -101 17
-18 133 -74 139 -68 8 8 159 272 159 278 0 4 -126 75 -134 75 -3 0 -16 -19
-29 -42z"/>
<path d="M4208 1310 c-43 -76 -78 -142 -78 -147 0 -9 113 -73 128 -73 10 0
162 261 162 278 0 7 -93 64 -130 79 -3 1 -40 -60 -82 -137z"/>
<path d="M767 1406 c-31 -18 -59 -35 -62 -38 -6 -6 142 -275 156 -284 10 -6
140 67 135 75 -51 96 -159 281 -164 280 -4 0 -33 -15 -65 -33z"/>
<path d="M1013 971 c-35 -20 -63 -40 -63 -46 1 -5 36 -72 78 -147 l78 -137 67
37 c37 20 67 40 67 44 0 10 -151 277 -159 282 -3 1 -34 -13 -68 -33z"/>
<path d="M4026 988 c-33 -54 -146 -261 -144 -263 7 -7 127 -75 131 -75 5 0
117 191 150 257 l17 31 -64 36 c-35 20 -67 36 -70 36 -3 0 -12 -10 -20 -22z"/>
<path d="M1268 535 l-67 -35 42 -90 41 -90 118 0 118 0 0 80 0 80 -67 0 -68 0
-18 45 c-11 25 -22 45 -25 45 -4 -1 -37 -16 -74 -35z"/>
<path d="M3753 525 l-18 -45 -67 0 -68 0 0 -80 0 -80 118 0 118 0 41 90 42 90
-69 35 c-38 19 -71 35 -74 35 -2 0 -12 -20 -23 -45z"/>
<path d="M1680 400 l0 -80 160 0 160 0 0 80 0 80 -160 0 -160 0 0 -80z"/>
<path d="M2160 400 l0 -80 160 0 160 0 0 80 0 80 -160 0 -160 0 0 -80z"/>
<path d="M2640 400 l0 -80 160 0 160 0 0 80 0 80 -160 0 -160 0 0 -80z"/>
<path d="M3120 400 l0 -80 160 0 160 0 0 80 0 80 -160 0 -160 0 0 -80z"/>
</g>
</svg>
