<?xml version="1.0" standalone="no"?>
<!DOCTYPE svg PUBLIC "-//W3C//DTD SVG 20010904//EN"
 "http://www.w3.org/TR/2001/REC-SVG-20010904/DTD/svg10.dtd">
<svg version="1.0" xmlns="http://www.w3.org/2000/svg"
 width="512.000000pt" height="512.000000pt" viewBox="0 0 512.000000 512.000000"
 preserveAspectRatio="xMidYMid meet">

<g transform="translate(0.000000,512.000000) scale(0.100000,-0.100000)"
fill="#000000" stroke="none">
<path d="M660 4160 l0 -440 150 0 150 0 0 290 0 290 290 0 290 0 0 150 0 150
-440 0 -440 0 0 -440z"/>
<path d="M1840 4450 l0 -150 340 0 340 0 0 150 0 150 -340 0 -340 0 0 -150z"/>
<path d="M2820 4450 l0 -150 300 0 300 0 0 -290 0 -290 150 0 150 0 0 440 0
440 -450 0 -450 0 0 -150z"/>
<path d="M660 3170 l0 -250 150 0 150 0 0 250 0 250 -150 0 -150 0 0 -250z"/>
<path d="M3420 3170 l0 -250 150 0 150 0 0 250 0 250 -150 0 -150 0 0 -250z"/>
<path d="M2813 3170 c-38 -23 -58 -52 -72 -105 -7 -27 -8 -340 -2 -990 9
-1051 4 -991 75 -1053 31 -27 45 -32 87 -32 27 0 64 6 82 14 18 7 104 72 190
145 162 134 189 148 219 114 8 -10 73 -145 143 -301 70 -155 141 -301 157
-323 36 -50 105 -95 168 -108 132 -28 264 57 301 194 24 86 10 132 -135 453
-75 166 -136 310 -136 321 0 10 7 24 15 31 8 6 101 23 207 36 227 28 257 35
303 75 64 57 67 144 8 222 -41 53 -1411 1286 -1455 1308 -48 25 -114 24 -155
-1z m806 -814 c353 -319 638 -583 634 -586 -5 -4 -89 -17 -188 -29 -219 -26
-271 -46 -320 -125 -26 -43 -30 -59 -30 -120 0 -70 3 -76 138 -373 75 -167
137 -315 137 -331 0 -63 -59 -103 -115 -77 -40 20 -50 39 -199 371 -65 144
-131 277 -147 297 -41 50 -102 77 -176 77 -80 0 -111 -18 -282 -162 l-139
-117 -6 102 c-3 56 -7 463 -10 904 l-4 803 33 -28 c18 -15 321 -288 674 -606z"/>
<path d="M660 2180 l0 -440 440 0 440 0 0 140 0 140 -290 0 -290 0 0 300 0
300 -150 0 -150 0 0 -440z"/>
<path d="M1840 1880 l0 -140 340 0 340 0 0 140 0 140 -340 0 -340 0 0 -140z"/>
</g>
</svg>
