<?xml version="1.0" standalone="no"?>
<!DOCTYPE svg PUBLIC "-//W3C//DTD SVG 20010904//EN"
 "http://www.w3.org/TR/2001/REC-SVG-20010904/DTD/svg10.dtd">
<svg version="1.0" xmlns="http://www.w3.org/2000/svg"
 width="225.000000pt" height="225.000000pt" viewBox="0 0 225.000000 225.000000"
 preserveAspectRatio="xMidYMid meet">

<g transform="translate(0.000000,225.000000) scale(0.100000,-0.100000)"
fill="#000000" stroke="none">
<path d="M1000 1758 c-41 -28 -60 -61 -60 -105 0 -27 -4 -34 -27 -39 -179 -39
-271 -76 -301 -121 l-14 -23 526 0 c316 0 526 4 526 9 0 37 -170 115 -281 128
-47 6 -47 6 -54 50 -4 31 -17 56 -40 81 l-33 37 -104 3 c-95 3 -106 2 -138
-20z m231 -57 c16 -16 29 -40 29 -53 0 -23 0 -23 -135 -23 -129 0 -135 1 -135
20 0 27 27 64 54 75 11 5 52 9 89 9 63 1 71 -1 98 -28z"/>
<path d="M704 1323 c3 -49 11 -236 17 -418 6 -181 15 -345 21 -363 6 -20 23
-41 42 -53 29 -18 53 -19 341 -19 226 0 317 4 334 13 55 27 59 48 70 377 6
168 14 360 17 428 l6 122 -427 0 -427 0 6 -87z m225 -90 c5 -10 14 -141 21
-291 12 -257 11 -274 -5 -292 -21 -24 -35 -25 -61 -6 -17 13 -20 36 -31 293
-10 249 -10 280 4 296 9 9 26 17 39 17 13 0 27 -8 33 -17z m225 1 c14 -13 16
-54 16 -290 0 -261 -1 -275 -20 -294 -24 -24 -29 -24 -58 -4 -22 15 -22 17
-22 298 0 206 3 285 12 294 17 17 54 15 72 -4z m242 -11 c14 -14 15 -30 10
-97 -3 -45 -8 -157 -11 -251 -3 -93 -8 -185 -11 -202 -9 -57 -77 -70 -90 -17
-3 13 -1 142 6 287 10 207 16 266 28 280 19 22 46 22 68 0z"/>
</g>
</svg>
